<svg version="1.1" id="Layer_1" xmlns="http://www.w3.org/2000/svg" xmlns:xlink="http://www.w3.org/1999/xlink" x="0px" y="0px"
	 width="100%" viewBox="0 0 2000 1500" enable-background="new 0 0 2000 1500" xml:space="preserve">
<path fill="#FFFFFF" opacity="1.000000" stroke="none" 
	d="
M1866.000000,1501.000000 
	C1244.000244,1501.000000 622.500366,1501.000000 1.000417,1501.000000 
	C1.000278,1001.000305 1.000278,501.000671 1.000139,1.000752 
	C667.666138,1.000502 1334.332275,1.000502 2000.998779,1.000251 
	C2000.999268,500.999298 2000.999268,1000.998596 2000.999634,1500.999023 
	C1956.166626,1501.000000 1911.333374,1501.000000 1866.000000,1501.000000 
M1667.222534,712.953125 
	C1660.728516,716.375854 1654.234497,719.798645 1647.606567,723.291992 
	C1646.998535,720.016785 1646.308960,716.301880 1645.614380,712.559814 
	C1636.681885,712.559814 1627.966675,712.559814 1619.356812,712.559814 
	C1619.356812,756.032715 1619.356812,799.109070 1619.356812,842.209839 
	C1629.221436,842.209839 1638.768188,842.209839 1648.611938,842.209839 
	C1648.611938,839.822998 1648.605713,837.838257 1648.613159,835.853577 
	C1648.701172,812.196106 1648.483521,788.531921 1649.004028,764.883911 
	C1649.286255,752.061707 1654.829834,742.106079 1668.812500,737.988831 
	C1670.294556,737.773010 1671.770752,737.500244 1673.259399,737.350220 
	C1687.794189,735.884949 1697.911255,742.854553 1701.110962,757.109009 
	C1702.265015,762.250305 1702.635376,767.653931 1702.677246,772.943298 
	C1702.846313,794.257263 1702.747314,815.573303 1702.747314,836.888611 
	C1702.747314,838.671387 1702.747314,840.454163 1702.747314,842.347473 
	C1712.769775,842.347473 1722.193237,842.347473 1732.079346,842.347473 
	C1732.079346,840.468323 1732.079224,838.839661 1732.079224,837.211060 
	C1732.078857,814.064026 1732.147705,790.916565 1732.027466,767.770142 
	C1731.999146,762.295837 1731.693481,756.772705 1730.905884,751.360840 
	C1726.403076,720.425049 1696.657471,702.338135 1667.222534,712.953125 
M951.864014,844.018494 
	C963.609558,843.385498 973.349731,838.067566 982.488525,830.097046 
	C983.219421,834.629517 983.818481,838.344421 984.438599,842.189819 
	C993.461609,842.189819 1002.322388,842.189819 1011.208435,842.189819 
	C1011.208435,798.674988 1011.208435,755.596008 1011.208435,712.409363 
	C1001.432617,712.409363 992.000977,712.409363 982.022949,712.409363 
	C982.022949,714.425659 982.023010,716.206665 982.022827,717.987671 
	C982.021240,740.149780 982.211792,762.314697 981.886536,784.472046 
	C981.802429,790.197571 980.916504,796.194397 978.979126,801.553223 
	C974.320068,814.440308 963.632019,818.092529 950.369324,817.592590 
	C937.224609,815.176208 931.344299,809.519531 928.851624,796.231262 
	C928.029907,791.850464 927.817688,787.305237 927.796387,782.832947 
	C927.693176,761.179199 927.749695,739.524658 927.749695,717.870422 
	C927.749695,716.100952 927.749695,714.331482 927.749695,712.542847 
	C917.513855,712.542847 907.964844,712.542847 898.534668,712.542847 
	C898.329346,713.249268 898.158081,713.564331 898.157593,713.879578 
	C898.129395,733.034729 898.010559,752.190674 898.141968,771.344788 
	C898.211609,781.490967 898.085938,791.700928 899.149353,801.765808 
	C902.065063,829.361755 924.739807,847.527893 951.864014,844.018494 
M1522.820068,843.988831 
	C1563.973022,846.213745 1592.036011,823.459534 1596.416992,784.314453 
	C1601.403198,739.761658 1566.599609,705.534546 1521.158447,711.027039 
	C1498.701904,714.025757 1481.543213,724.883972 1471.277466,745.398743 
	C1464.522705,758.896973 1463.612427,773.407043 1465.025146,788.223572 
	C1467.904297,818.423340 1492.523804,842.509460 1522.820068,843.988831 
M614.154236,710.968323 
	C601.377563,711.824280 590.880371,717.842163 580.594116,726.667725 
	C580.594116,702.188477 580.594116,678.818542 580.594116,655.318604 
	C570.506836,655.318604 560.958435,655.318604 551.342529,655.318604 
	C551.342529,717.813477 551.342529,779.985901 551.342529,842.363037 
	C560.215637,842.363037 568.788269,842.363037 577.546326,842.363037 
	C578.314819,837.229797 579.044067,832.358765 579.870728,826.837219 
	C590.340820,836.900757 601.696838,843.623230 616.788391,844.047058 
	C638.048889,845.571899 655.408752,838.335693 667.764343,820.684448 
	C684.430786,796.875000 684.410400,757.390991 667.547119,733.775574 
	C654.710999,715.799988 636.933472,708.420898 614.154236,710.968323 
M475.521423,843.039307 
	C483.395905,840.028320 491.938049,838.116333 499.025909,833.810486 
	C525.553101,817.695190 536.064331,782.288696 524.295471,751.328369 
	C513.803772,723.727844 487.406738,708.594666 457.631287,710.600464 
	C434.919922,712.130310 416.687408,721.825623 405.055573,741.940491 
	C397.111847,755.677612 395.478546,770.717773 396.826111,786.369507 
	C400.230896,825.916443 433.874146,850.010315 475.521423,843.039307 
M1124.135986,801.500000 
	C1124.135986,815.077576 1124.135986,828.655212 1124.135986,842.232178 
	C1134.414429,842.232178 1143.963989,842.232178 1153.786743,842.232178 
	C1153.786743,829.838074 1153.881836,817.856689 1153.763794,805.877380 
	C1153.596558,788.900146 1154.123413,771.859680 1152.835938,754.961853 
	C1150.231445,720.777893 1118.755127,701.381287 1086.772461,713.834656 
	C1080.599487,716.238220 1075.057983,720.263000 1069.146851,723.583862 
	C1068.724976,721.002502 1068.498901,718.160278 1067.717529,715.480042 
	C1067.349487,714.217896 1065.944214,712.351624 1064.958130,712.319458 
	C1057.026123,712.060913 1049.082031,712.174683 1041.014404,712.174683 
	C1041.014404,755.923157 1041.014404,799.119934 1041.014404,842.316895 
	C1050.828979,842.316895 1060.258179,842.316895 1070.045898,842.316895 
	C1070.045898,840.195374 1070.045776,838.385193 1070.045898,836.575012 
	C1070.046021,815.091064 1069.994385,793.606934 1070.092163,772.123413 
	C1070.110962,767.978882 1070.409424,763.784912 1071.104736,759.703308 
	C1073.582397,745.159607 1083.155151,737.242554 1097.799927,737.329102 
	C1112.225464,737.414368 1121.387085,744.638733 1122.988770,759.623962 
	C1124.433105,773.135803 1123.834106,786.866089 1124.135986,801.500000 
M1294.289673,808.859619 
	C1287.857178,806.605286 1281.342041,804.556702 1275.025269,802.014709 
	C1271.590576,800.632446 1269.962524,801.456421 1267.803589,804.405457 
	C1259.626709,815.575500 1247.993896,819.143677 1234.740967,817.660706 
	C1221.502075,816.179382 1212.703125,808.522400 1208.545776,796.093567 
	C1204.130005,782.892029 1204.193970,769.425537 1209.548706,756.484375 
	C1214.828247,743.724792 1224.679443,737.008484 1238.705566,736.893860 
	C1252.270752,736.782959 1262.871460,742.070679 1269.668091,754.382935 
	C1278.550415,751.445679 1287.193726,748.587463 1296.169312,745.619385 
	C1295.209106,743.642761 1294.489990,741.976440 1293.617798,740.394531 
	C1277.546997,711.243591 1234.087036,701.255249 1204.042236,719.368896 
	C1167.727173,741.263000 1166.967407,795.121643 1187.166992,820.598083 
	C1204.566895,842.543457 1227.788940,847.765625 1253.974854,842.383240 
	C1271.340088,838.813904 1285.200684,829.414917 1294.379883,813.892883 
	C1295.139893,812.607910 1294.789429,810.666260 1294.289673,808.859619 
M838.901367,706.500000 
	C838.901306,733.477173 838.933533,760.454407 838.863220,787.431396 
	C838.853699,791.077637 838.619080,794.773438 837.990356,798.358887 
	C835.760864,811.070923 825.616516,819.041687 812.794250,818.348694 
	C801.274597,817.726135 794.209839,811.309875 790.279724,800.372375 
	C781.487061,803.126892 772.852600,805.831787 762.670288,809.021667 
	C766.907593,815.817261 769.960083,822.583496 774.654358,827.900269 
	C790.504822,845.852600 821.670227,849.876160 843.607178,837.245056 
	C862.230347,826.521973 869.648682,809.568054 869.679626,788.809448 
	C869.740845,747.677551 869.700684,706.545593 869.688904,665.413635 
	C869.688477,663.795349 869.549133,662.177124 869.466675,660.390015 
	C859.188843,660.390015 849.291443,660.390015 838.901367,660.390015 
	C838.901367,675.610413 838.901367,690.555176 838.901367,706.500000 
M342.988739,660.325134 
	C342.694763,661.057129 342.152771,661.786621 342.145416,662.521484 
	C342.075226,669.516907 342.092804,676.513245 342.090515,683.509277 
	C342.078674,719.822266 342.157043,756.135620 342.009888,792.448059 
	C341.957794,805.300354 334.041351,815.870850 323.577515,817.932556 
	C310.480408,820.513123 300.333374,815.128845 294.524536,802.537903 
	C294.198914,801.832031 293.723236,801.195435 293.260834,800.433411 
	C284.510406,803.194336 276.006470,805.877502 267.239288,808.643738 
	C271.995117,823.712219 280.942047,834.505615 295.334045,840.203796 
	C309.314728,845.739258 323.658264,845.766602 337.880646,841.209229 
	C359.651978,834.233093 372.853546,815.044128 372.925934,790.239197 
	C373.047943,748.429504 372.964447,706.619263 372.949524,664.809204 
	C372.949005,663.370544 372.756836,661.931946 372.629059,660.144348 
	C362.825073,660.144348 353.361816,660.144348 342.988739,660.325134 
M1384.104004,824.606689 
	C1384.104004,822.008301 1384.104004,819.409851 1384.104004,817.098755 
	C1379.790039,817.098755 1376.143799,817.126160 1372.498047,817.093750 
	C1359.914185,816.982056 1354.135376,811.506714 1353.956787,798.795593 
	C1353.708740,781.140198 1353.831909,763.479553 1353.797607,745.821167 
	C1353.792847,743.376465 1353.796997,740.931763 1353.796997,737.874756 
	C1364.214111,737.874756 1374.094360,737.874756 1383.743408,737.874756 
	C1383.743408,728.998962 1383.743408,720.748718 1383.743408,712.014404 
	C1373.649414,712.014404 1363.906250,712.014404 1353.683105,712.014404 
	C1353.683105,699.776672 1353.683105,688.029785 1353.683105,676.268799 
	C1343.468628,676.268799 1333.757935,676.268799 1323.575684,676.268799 
	C1323.575684,688.407043 1323.575684,700.153809 1323.575684,712.379150 
	C1317.354492,712.379150 1311.605591,712.379150 1305.738159,712.379150 
	C1305.738159,721.134460 1305.738159,729.392639 1305.738159,738.105225 
	C1311.773438,738.105225 1317.533691,738.105225 1323.844482,738.105225 
	C1323.844482,740.337952 1323.841919,742.120850 1323.844971,743.903748 
	C1323.877075,762.895020 1323.543457,781.895508 1324.021606,800.875610 
	C1324.939087,837.297363 1355.516968,848.428223 1384.104004,840.926025 
	C1384.104004,835.870117 1384.104004,830.724304 1384.104004,824.606689 
M1437.920044,795.500000 
	C1437.920044,767.887817 1437.920044,740.275635 1437.920044,712.514038 
	C1427.809937,712.514038 1418.265991,712.514038 1408.605957,712.514038 
	C1408.605957,755.945129 1408.605957,799.020386 1408.605957,842.289185 
	C1418.475220,842.289185 1428.036865,842.289185 1437.919922,842.289185 
	C1437.919922,826.797852 1437.919922,811.648926 1437.920044,795.500000 
M1413.942627,657.211121 
	C1406.741577,661.696350 1403.206055,668.164429 1404.446533,676.593567 
	C1405.590820,684.368774 1410.319336,689.707214 1417.884888,691.760986 
	C1425.548828,693.841492 1432.425293,691.941467 1437.728394,685.702759 
	C1443.124512,679.354492 1443.486816,669.799683 1438.669312,662.953674 
	C1433.305664,655.331726 1424.464233,653.106323 1413.942627,657.211121 
z"/>
<path fill="#FE9132" opacity="1.000000" stroke="none" 
	d="
M475.090149,843.100952 
	C433.874146,850.010315 400.230896,825.916443 396.826111,786.369507 
	C395.478546,770.717773 397.111847,755.677612 405.055573,741.940491 
	C416.687408,721.825623 434.919922,712.130310 457.631287,710.600464 
	C487.406738,708.594666 513.803772,723.727844 524.295471,751.328369 
	C536.064331,782.288696 525.553101,817.695190 499.025909,833.810486 
	C491.938049,838.116333 483.395905,840.028320 475.090149,843.100952 
M496.916931,770.876221 
	C496.574097,768.743591 496.328918,766.589905 495.872925,764.481750 
	C492.236603,747.670776 478.730865,736.840942 461.532928,736.898132 
	C445.345856,736.951965 432.217224,747.416565 429.428619,764.087708 
	C428.028564,772.457642 428.093872,781.366089 429.218384,789.801514 
	C431.318970,805.559204 443.263733,816.587036 457.885803,817.887207 
	C473.610626,819.285339 488.964905,810.489014 493.732025,795.773010 
	C496.176941,788.225647 495.970856,779.819519 496.916931,770.876221 
z"/>
<path fill="#FB5E37" opacity="1.000000" stroke="none" 
	d="
M1124.135986,801.000000 
	C1123.834106,786.866089 1124.433105,773.135803 1122.988770,759.623962 
	C1121.387085,744.638733 1112.225464,737.414368 1097.799927,737.329102 
	C1083.155151,737.242554 1073.582397,745.159607 1071.104736,759.703308 
	C1070.409424,763.784912 1070.110962,767.978882 1070.092163,772.123413 
	C1069.994385,793.606934 1070.046021,815.091064 1070.045898,836.575012 
	C1070.045776,838.385193 1070.045898,840.195374 1070.045898,842.316895 
	C1060.258179,842.316895 1050.828979,842.316895 1041.014404,842.316895 
	C1041.014404,799.119934 1041.014404,755.923157 1041.014404,712.174683 
	C1049.082031,712.174683 1057.026123,712.060913 1064.958130,712.319458 
	C1065.944214,712.351624 1067.349487,714.217896 1067.717529,715.480042 
	C1068.498901,718.160278 1068.724976,721.002502 1069.146851,723.583862 
	C1075.057983,720.263000 1080.599487,716.238220 1086.772461,713.834656 
	C1118.755127,701.381287 1150.231445,720.777893 1152.835938,754.961853 
	C1154.123413,771.859680 1153.596558,788.900146 1153.763794,805.877380 
	C1153.881836,817.856689 1153.786743,829.838074 1153.786743,842.232178 
	C1143.963989,842.232178 1134.414429,842.232178 1124.135986,842.232178 
	C1124.135986,828.655212 1124.135986,815.077576 1124.135986,801.000000 
z"/>
<path fill="#FA4E39" opacity="1.000000" stroke="none" 
	d="
M1294.622314,808.944641 
	C1294.789429,810.666260 1295.139893,812.607910 1294.379883,813.892883 
	C1285.200684,829.414917 1271.340088,838.813904 1253.974854,842.383240 
	C1227.788940,847.765625 1204.566895,842.543457 1187.166992,820.598083 
	C1166.967407,795.121643 1167.727173,741.263000 1204.042236,719.368896 
	C1234.087036,701.255249 1277.546997,711.243591 1293.617798,740.394531 
	C1294.489990,741.976440 1295.209106,743.642761 1296.169312,745.619385 
	C1287.193726,748.587463 1278.550415,751.445679 1269.668091,754.382935 
	C1262.871460,742.070679 1252.270752,736.782959 1238.705566,736.893860 
	C1224.679443,737.008484 1214.828247,743.724792 1209.548706,756.484375 
	C1204.193970,769.425537 1204.130005,782.892029 1208.545776,796.093567 
	C1212.703125,808.522400 1221.502075,816.179382 1234.740967,817.660706 
	C1247.993896,819.143677 1259.626709,815.575500 1267.803589,804.405457 
	C1269.962524,801.456421 1271.590576,800.632446 1275.025269,802.014709 
	C1281.342041,804.556702 1287.857178,806.605286 1294.622314,808.944641 
z"/>
<path fill="#FD8A33" opacity="1.000000" stroke="none" 
	d="
M616.001526,843.870178 
	C601.696838,843.623230 590.340820,836.900757 579.870728,826.837219 
	C579.044067,832.358765 578.314819,837.229797 577.546326,842.363037 
	C568.788269,842.363037 560.215637,842.363037 551.342529,842.363037 
	C551.342529,779.985901 551.342529,717.813477 551.342529,655.318604 
	C560.958435,655.318604 570.506836,655.318604 580.594116,655.318604 
	C580.594116,678.818542 580.594116,702.188477 580.594116,726.667725 
	C590.880371,717.842163 601.377563,711.824280 614.577271,711.485107 
	C615.000732,720.288940 615.001160,728.576050 614.580322,736.939514 
	C601.017456,737.458252 591.518677,743.740234 585.344666,755.177612 
	C580.842224,763.518372 580.298889,772.591003 580.801758,781.813232 
	C581.964417,803.135925 593.887878,815.765564 615.000549,818.510864 
	C615.333740,827.274536 615.667603,835.572327 616.001526,843.870178 
z"/>
<path fill="#FC7236" opacity="1.000000" stroke="none" 
	d="
M838.901367,706.000000 
	C838.901367,690.555176 838.901367,675.610413 838.901367,660.390015 
	C849.291443,660.390015 859.188843,660.390015 869.466675,660.390015 
	C869.549133,662.177124 869.688477,663.795349 869.688904,665.413635 
	C869.700684,706.545593 869.740845,747.677551 869.679626,788.809448 
	C869.648682,809.568054 862.230347,826.521973 843.607178,837.245056 
	C821.670227,849.876160 790.504822,845.852600 774.654358,827.900269 
	C769.960083,822.583496 766.907593,815.817261 762.670288,809.021667 
	C772.852600,805.831787 781.487061,803.126892 790.279724,800.372375 
	C794.209839,811.309875 801.274597,817.726135 812.794250,818.348694 
	C825.616516,819.041687 835.760864,811.070923 837.990356,798.358887 
	C838.619080,794.773438 838.853699,791.077637 838.863220,787.431396 
	C838.933533,760.454407 838.901306,733.477173 838.901367,706.000000 
z"/>
<path fill="#FF9F31" opacity="1.000000" stroke="none" 
	d="
M343.443665,660.234741 
	C353.361816,660.144348 362.825073,660.144348 372.629059,660.144348 
	C372.756836,661.931946 372.949005,663.370544 372.949524,664.809204 
	C372.964447,706.619263 373.047943,748.429504 372.925934,790.239197 
	C372.853546,815.044128 359.651978,834.233093 337.880646,841.209229 
	C323.658264,845.766602 309.314728,845.739258 295.334045,840.203796 
	C280.942047,834.505615 271.995117,823.712219 267.239288,808.643738 
	C276.006470,805.877502 284.510406,803.194336 293.260834,800.433411 
	C293.723236,801.195435 294.198914,801.832031 294.524536,802.537903 
	C300.333374,815.128845 310.480408,820.513123 323.577515,817.932556 
	C334.041351,815.870850 341.957794,805.300354 342.009888,792.448059 
	C342.157043,756.135620 342.078674,719.822266 342.090515,683.509277 
	C342.092804,676.513245 342.075226,669.516907 342.145416,662.521484 
	C342.152771,661.786621 342.694763,661.057129 343.443665,660.234741 
z"/>
<path fill="#F9433B" opacity="1.000000" stroke="none" 
	d="
M1384.104004,825.092590 
	C1384.104004,830.724304 1384.104004,835.870117 1384.104004,840.926025 
	C1355.516968,848.428223 1324.939087,837.297363 1324.021606,800.875610 
	C1323.543457,781.895508 1323.877075,762.895020 1323.844971,743.903748 
	C1323.841919,742.120850 1323.844482,740.337952 1323.844482,738.105225 
	C1317.533691,738.105225 1311.773438,738.105225 1305.738159,738.105225 
	C1305.738159,729.392639 1305.738159,721.134460 1305.738159,712.379150 
	C1311.605591,712.379150 1317.354492,712.379150 1323.575684,712.379150 
	C1323.575684,700.153809 1323.575684,688.407043 1323.575684,676.268799 
	C1333.757935,676.268799 1343.468628,676.268799 1353.683105,676.268799 
	C1353.683105,688.029785 1353.683105,699.776672 1353.683105,712.014404 
	C1363.906250,712.014404 1373.649414,712.014404 1383.743408,712.014404 
	C1383.743408,720.748718 1383.743408,728.998962 1383.743408,737.874756 
	C1374.094360,737.874756 1364.214111,737.874756 1353.796997,737.874756 
	C1353.796997,740.931763 1353.792847,743.376465 1353.797607,745.821167 
	C1353.831909,763.479553 1353.708740,781.140198 1353.956787,798.795593 
	C1354.135376,811.506714 1359.914185,816.982056 1372.498047,817.093750 
	C1376.143799,817.126160 1379.790039,817.098755 1384.104004,817.098755 
	C1384.104004,819.409851 1384.104004,822.008301 1384.104004,825.092590 
z"/>
<path fill="#F82F3D" opacity="1.000000" stroke="none" 
	d="
M1522.002319,711.132324 
	C1566.599609,705.534546 1601.403198,739.761658 1596.416992,784.314453 
	C1592.036011,823.459534 1563.973022,846.213745 1522.410645,843.440430 
	C1522.366089,834.481812 1522.731079,826.071716 1523.555908,817.667114 
	C1545.263550,820.650330 1560.284058,805.929565 1563.479248,791.194519 
	C1564.596802,786.041077 1564.936523,780.648682 1565.025146,775.355225 
	C1565.351807,755.870605 1553.809082,736.579407 1527.937134,736.427490 
	C1526.913696,736.370972 1525.956177,736.625000 1524.651367,737.000732 
	C1523.580933,737.248779 1522.857910,737.375061 1522.097168,737.002563 
	C1522.040405,728.046570 1522.021362,719.589478 1522.002319,711.132324 
z"/>
<path fill="#FD8434" opacity="1.000000" stroke="none" 
	d="
M615.001526,736.863098 
	C615.001160,728.576050 615.000732,720.288940 615.001343,711.538513 
	C636.933472,708.420898 654.710999,715.799988 667.547119,733.775574 
	C684.410400,757.390991 684.430786,796.875000 667.764343,820.684448 
	C655.408752,838.335693 638.048889,845.571899 616.394958,843.958618 
	C615.667603,835.572327 615.333740,827.274536 615.401245,818.419312 
	C628.522034,817.072083 637.724487,810.779175 643.506042,799.617004 
	C649.093262,788.830017 649.495728,777.272156 647.132080,765.644470 
	C643.620544,748.369873 632.330322,738.451965 615.001526,736.863098 
z"/>
<path fill="#FB5E37" opacity="1.000000" stroke="none" 
	d="
M951.009766,817.953491 
	C963.632019,818.092529 974.320068,814.440308 978.979126,801.553223 
	C980.916504,796.194397 981.802429,790.197571 981.886536,784.472046 
	C982.211792,762.314697 982.021240,740.149780 982.022827,717.987671 
	C982.023010,716.206665 982.022949,714.425659 982.022949,712.409363 
	C992.000977,712.409363 1001.432617,712.409363 1011.208435,712.409363 
	C1011.208435,755.596008 1011.208435,798.674988 1011.208435,842.189819 
	C1002.322388,842.189819 993.461609,842.189819 984.438599,842.189819 
	C983.818481,838.344421 983.219421,834.629517 982.488525,830.097046 
	C973.349731,838.067566 963.609558,843.385498 951.432007,843.499390 
	C951.003235,834.638000 951.006470,826.295776 951.009766,817.953491 
z"/>
<path fill="#F7223E" opacity="1.000000" stroke="none" 
	d="
M1667.984741,712.956970 
	C1696.657471,702.338135 1726.403076,720.425049 1730.905884,751.360840 
	C1731.693481,756.772705 1731.999146,762.295837 1732.027466,767.770142 
	C1732.147705,790.916565 1732.078857,814.064026 1732.079224,837.211060 
	C1732.079224,838.839661 1732.079346,840.468323 1732.079346,842.347473 
	C1722.193237,842.347473 1712.769775,842.347473 1702.747314,842.347473 
	C1702.747314,840.454163 1702.747314,838.671387 1702.747314,836.888611 
	C1702.747314,815.573303 1702.846313,794.257263 1702.677246,772.943298 
	C1702.635376,767.653931 1702.265015,762.250305 1701.110962,757.109009 
	C1697.911255,742.854553 1687.794189,735.884949 1673.259399,737.350220 
	C1671.770752,737.500244 1670.294556,737.773010 1668.402588,737.499023 
	C1667.989990,728.991821 1667.987305,720.974426 1667.984741,712.956970 
z"/>
<path fill="#F82F3D" opacity="1.000000" stroke="none" 
	d="
M1667.603638,712.955078 
	C1667.987305,720.974426 1667.989990,728.991821 1667.989380,737.473877 
	C1654.829834,742.106079 1649.286255,752.061707 1649.004028,764.883911 
	C1648.483521,788.531921 1648.701172,812.196106 1648.613159,835.853577 
	C1648.605713,837.838257 1648.611938,839.822998 1648.611938,842.209839 
	C1638.768188,842.209839 1629.221436,842.209839 1619.356812,842.209839 
	C1619.356812,799.109070 1619.356812,756.032715 1619.356812,712.559814 
	C1627.966675,712.559814 1636.681885,712.559814 1645.614380,712.559814 
	C1646.308960,716.301880 1646.998535,720.016785 1647.606567,723.291992 
	C1654.234497,719.798645 1660.728516,716.375854 1667.603638,712.955078 
z"/>
<path fill="#F8353C" opacity="1.000000" stroke="none" 
	d="
M1523.095947,817.661560 
	C1522.731079,826.071716 1522.366089,834.481812 1522.002686,843.347656 
	C1492.523804,842.509460 1467.904297,818.423340 1465.025146,788.223572 
	C1463.612427,773.407043 1464.522705,758.896973 1471.277466,745.398743 
	C1481.543213,724.883972 1498.701904,714.025757 1521.580322,711.079712 
	C1522.021362,719.589478 1522.040405,728.046570 1521.794312,737.161743 
	C1508.937500,741.174133 1500.775513,749.431274 1498.137329,761.863647 
	C1496.411865,769.995056 1496.050049,778.730286 1496.865234,787.019226 
	C1498.429199,802.919922 1507.098999,813.656921 1523.095947,817.661560 
z"/>
<path fill="#FC7236" opacity="1.000000" stroke="none" 
	d="
M950.689575,817.773071 
	C951.006470,826.295776 951.003235,834.638000 951.002075,843.442383 
	C924.739807,847.527893 902.065063,829.361755 899.149353,801.765808 
	C898.085938,791.700928 898.211609,781.490967 898.141968,771.344788 
	C898.010559,752.190674 898.129395,733.034729 898.157593,713.879578 
	C898.158081,713.564331 898.329346,713.249268 898.534668,712.542847 
	C907.964844,712.542847 917.513855,712.542847 927.749695,712.542847 
	C927.749695,714.331482 927.749695,716.100952 927.749695,717.870422 
	C927.749695,739.524658 927.693176,761.179199 927.796387,782.832947 
	C927.817688,787.305237 928.029907,791.850464 928.851624,796.231262 
	C931.344299,809.519531 937.224609,815.176208 950.689575,817.773071 
z"/>
<path fill="#F9433B" opacity="1.000000" stroke="none" 
	d="
M1437.919922,796.000000 
	C1437.919922,811.648926 1437.919922,826.797852 1437.919922,842.289185 
	C1428.036865,842.289185 1418.475220,842.289185 1408.605957,842.289185 
	C1408.605957,799.020386 1408.605957,755.945129 1408.605957,712.514038 
	C1418.265991,712.514038 1427.809937,712.514038 1437.920044,712.514038 
	C1437.920044,740.275635 1437.920044,767.887817 1437.919922,796.000000 
z"/>
<path fill="#F9433B" opacity="1.000000" stroke="none" 
	d="
M1414.292236,657.058533 
	C1424.464233,653.106323 1433.305664,655.331726 1438.669312,662.953674 
	C1443.486816,669.799683 1443.124512,679.354492 1437.728394,685.702759 
	C1432.425293,691.941467 1425.548828,693.841492 1417.884888,691.760986 
	C1410.319336,689.707214 1405.590820,684.368774 1404.446533,676.593567 
	C1403.206055,668.164429 1406.741577,661.696350 1414.292236,657.058533 
z"/>
<path fill="#FFFFFF" opacity="1.000000" stroke="none" 
	d="
M496.939880,771.338867 
	C495.970856,779.819519 496.176941,788.225647 493.732025,795.773010 
	C488.964905,810.489014 473.610626,819.285339 457.885803,817.887207 
	C443.263733,816.587036 431.318970,805.559204 429.218384,789.801514 
	C428.093872,781.366089 428.028564,772.457642 429.428619,764.087708 
	C432.217224,747.416565 445.345856,736.951965 461.532928,736.898132 
	C478.730865,736.840942 492.236603,747.670776 495.872925,764.481750 
	C496.328918,766.589905 496.574097,768.743591 496.939880,771.338867 
z"/>
<path fill="#FFFFFF" opacity="1.000000" stroke="none" 
	d="
M614.580322,736.939514 
	C632.330322,738.451965 643.620544,748.369873 647.132080,765.644470 
	C649.495728,777.272156 649.093262,788.830017 643.506042,799.617004 
	C637.724487,810.779175 628.522034,817.072083 615.401978,817.953491 
	C593.887878,815.765564 581.964417,803.135925 580.801758,781.813232 
	C580.298889,772.591003 580.842224,763.518372 585.344666,755.177612 
	C591.518677,743.740234 601.017456,737.458252 614.580322,736.939514 
z"/>
<path fill="#FFFFFF" opacity="1.000000" stroke="none" 
	d="
M1523.555908,817.667114 
	C1507.098999,813.656921 1498.429199,802.919922 1496.865234,787.019226 
	C1496.050049,778.730286 1496.411865,769.995056 1498.137329,761.863647 
	C1500.775513,749.431274 1508.937500,741.174133 1521.832031,737.660583 
	C1522.857910,737.375061 1523.580933,737.248779 1525.027100,737.057983 
	C1526.501221,736.908386 1527.252075,736.823242 1528.003052,736.738098 
	C1553.809082,736.579407 1565.351807,755.870605 1565.025146,775.355225 
	C1564.936523,780.648682 1564.596802,786.041077 1563.479248,791.194519 
	C1560.284058,805.929565 1545.263550,820.650330 1523.555908,817.667114 
z"/>
<path fill="#F8353C" opacity="1.000000" stroke="none" 
	d="
M1527.937134,736.427490 
	C1527.252075,736.823242 1526.501221,736.908386 1525.374512,736.936279 
	C1525.956177,736.625000 1526.913696,736.370972 1527.937134,736.427490 
z"/>
</svg>